<?xml version="1.0" encoding="UTF-8" standalone="no"?>
<!-- Created with Inkscape (http://www.inkscape.org/) -->

<svg
   xmlns:dc="http://purl.org/dc/elements/1.1/"
   xmlns:cc="http://creativecommons.org/ns#"
   xmlns:rdf="http://www.w3.org/1999/02/22-rdf-syntax-ns#"
   xmlns:svg="http://www.w3.org/2000/svg"
   xmlns="http://www.w3.org/2000/svg"
   xmlns:sodipodi="http://sodipodi.sourceforge.net/DTD/sodipodi-0.dtd"
   xmlns:inkscape="http://www.inkscape.org/namespaces/inkscape"
   width="153.78961mm"
   height="76.776573mm"
   viewBox="0 0 544.92382 272.04297"
   id="svg4181"
   version="1.1"
   inkscape:version="0.91 r13725"
   sodipodi:docname="cloud1.svg">
  <defs
     id="defs4183" />
  <sodipodi:namedview
     id="base"
     pagecolor="#ffffff"
     bordercolor="#666666"
     borderopacity="1.0"
     inkscape:pageopacity="0.0"
     inkscape:pageshadow="2"
     inkscape:zoom="1.194663"
     inkscape:cx="301.25038"
     inkscape:cy="97.387198"
     inkscape:document-units="px"
     inkscape:current-layer="layer1"
     showgrid="false"
     fit-margin-top="0"
     fit-margin-left="0"
     fit-margin-right="0"
     fit-margin-bottom="0"
     inkscape:window-width="1366"
     inkscape:window-height="723"
     inkscape:window-x="0"
     inkscape:window-y="22"
     inkscape:window-maximized="1" />
  <metadata
     id="metadata4186">
    <rdf:RDF>
      <cc:Work
         rdf:about="">
        <dc:format>image/svg+xml</dc:format>
        <dc:type
           rdf:resource="http://purl.org/dc/dcmitype/StillImage" />
        <dc:title></dc:title>
      </cc:Work>
    </rdf:RDF>
  </metadata>
  <g
     inkscape:groupmode="layer"
     id="layer2"
     inkscape:label="Layer 2"
     transform="translate(-144.80989,-353.42072)" />
  <g
     inkscape:label="Layer 1"
     inkscape:groupmode="layer"
     id="layer1"
     transform="translate(-144.80989,-353.42072)">
    <path
       style="fill:#ffffff;fill-opacity:1;stroke:none;stroke-width:7;stroke-miterlimit:4;stroke-dasharray:none"
       d="m 530.69276,353.42072 a 118.02491,86.216782 0 0 0 -105.18165,47.3125 16.741121,24.274628 0 0 0 -5.30859,-1.27539 16.741121,24.274628 0 0 0 -15.51562,15.19922 86.635307,52.316006 0 0 0 -49.35743,-9.33984 86.635307,52.316006 0 0 0 -56.70898,12.85156 46.456615,40.597221 0 0 0 -24.48438,-6.1543 46.456615,40.597221 0 0 0 -46.45703,40.59766 46.456615,40.597221 0 0 0 0.0312,0.76758 122.62872,66.964485 0 0 0 -82.90039,63.26757 122.62872,66.964485 0 0 0 122.62891,66.9629 122.62872,66.964485 0 0 0 48.64648,-5.58008 72.405357,71.149773 0 0 0 62.68164,35.71484 72.405357,71.149773 0 0 0 52.54297,-22.32226 83.287086,74.079468 0 0 0 41.20899,9.76562 83.287086,74.079468 0 0 0 9.00195,-0.52148 74.079468,65.708908 0 0 0 57.96094,24.79687 74.079468,65.708908 0 0 0 71.11328,-47.47851 48.549255,20.926403 0 0 0 11.33789,0.60351 48.549255,20.926403 0 0 0 48.54883,-20.92578 48.549255,20.926403 0 0 0 -9.64258,-12.48047 116.3508,41.434277 0 0 0 28.89453,-27.28125 116.3508,41.434277 0 0 0 -12.68555,-18.81055 54.408646,33.900772 0 0 0 10.17579,-19.69336 54.408646,33.900772 0 0 0 -39.00391,-32.49414 118.02491,86.216782 0 0 0 0.49805,-7.26562 118.02491,86.216782 0 0 0 -118.02539,-86.2168 z"
       id="path4731"
       inkscape:connector-curvature="0" />
  </g>
</svg>
