<?xml version="1.0" encoding="UTF-8" standalone="no"?>
<!-- Created with Inkscape (http://www.inkscape.org/) -->

<svg
   xmlns:dc="http://purl.org/dc/elements/1.1/"
   xmlns:cc="http://creativecommons.org/ns#"
   xmlns:rdf="http://www.w3.org/1999/02/22-rdf-syntax-ns#"
   xmlns:svg="http://www.w3.org/2000/svg"
   xmlns="http://www.w3.org/2000/svg"
   xmlns:sodipodi="http://sodipodi.sourceforge.net/DTD/sodipodi-0.dtd"
   xmlns:inkscape="http://www.inkscape.org/namespaces/inkscape"
   width="146.03456mm"
   height="56.368378mm"
   viewBox="0 0 517.4453 199.73047"
   id="svg4181"
   version="1.1"
   inkscape:version="0.91 r13725"
   sodipodi:docname="cloud2.svg">
  <defs
     id="defs4183" />
  <sodipodi:namedview
     id="base"
     pagecolor="#ffffff"
     bordercolor="#666666"
     borderopacity="1.0"
     inkscape:pageopacity="0.0"
     inkscape:pageshadow="2"
     inkscape:zoom="1.1866001"
     inkscape:cx="305.27216"
     inkscape:cy="118.08367"
     inkscape:document-units="px"
     inkscape:current-layer="layer1"
     showgrid="false"
     inkscape:window-width="1366"
     inkscape:window-height="723"
     inkscape:window-x="0"
     inkscape:window-y="22"
     inkscape:window-maximized="1"
     fit-margin-top="0"
     fit-margin-left="0"
     fit-margin-right="0"
     fit-margin-bottom="0" />
  <metadata
     id="metadata4186">
    <rdf:RDF>
      <cc:Work
         rdf:about="">
        <dc:format>image/svg+xml</dc:format>
        <dc:type
           rdf:resource="http://purl.org/dc/dcmitype/StillImage" />
        <dc:title></dc:title>
      </cc:Work>
    </rdf:RDF>
  </metadata>
  <g
     inkscape:groupmode="layer"
     id="layer2"
     inkscape:label="Layer 2"
     transform="translate(-144.95117,-446.42969)" />
  <g
     inkscape:label="Layer 1"
     inkscape:groupmode="layer"
     id="layer1"
     transform="translate(-144.95117,-446.42969)">
    <path
       style="fill:#ffffff;fill-opacity:1;stroke:none;stroke-width:7;stroke-miterlimit:4;stroke-dasharray:none"
       d="m 346.78906,446.42969 a 119.24827,99.865158 0 0 0 -60.16992,13.78515 102.39339,86.381248 0 0 0 -21.57617,-1.98632 102.39339,86.381248 0 0 0 -100.50391,70.06836 49.300518,37.923477 0 0 0 -19.58789,30.21679 49.300518,37.923477 0 0 0 37.29297,36.73242 102.39339,86.381248 0 0 0 82.79883,35.74414 102.39339,86.381248 0 0 0 16.56055,-1.17187 119.24827,99.865158 0 0 0 65.18554,16.3418 119.24827,99.865158 0 0 0 82.44727,-27.75977 78.375183,96.494179 0 0 0 51.9707,24.38867 78.375183,96.494179 0 0 0 18.66992,-2.88281 96.91555,91.859085 0 0 0 7.45508,0.35352 96.91555,91.859085 0 0 0 89.80469,-57.48633 232.59734,70.369118 0 0 0 26.4043,-16.82617 54.356983,43.401314 0 0 0 38.85546,-41.56446 54.356983,43.401314 0 0 0 -54.35742,-43.40039 54.356983,43.401314 0 0 0 -28.39258,6.43164 96.91555,91.859085 0 0 0 -69.57617,-30.74218 78.375183,96.494179 0 0 0 -28.86328,-6.8711 78.375183,96.494179 0 0 0 -32.43555,8.78125 95.230064,25.70369 0 0 0 -37.20703,3.97852 119.24827,99.865158 0 0 0 -64.77539,-16.13086 z"
       id="path4812"
       inkscape:connector-curvature="0" />
  </g>
</svg>
